<svg xmlns="http://www.w3.org/2000/svg" viewBox="0 0 475.2 291.64"><defs><style>.cls-1{fill:#191530;}.cls-2,.cls-5,.cls-6,.cls-7{fill:#fff;}.cls-3{fill:#130e2d;}.cls-4{fill:#be1e2d;}.cls-5{font-size:72px;font-family:ImprintMT-Shadow, Imprint MT Shadow;letter-spacing:0em;}.cls-6{font-size:48px;}.cls-6,.cls-7{font-family:MyanmarText, Myanmar Text;letter-spacing:0.02em;}.cls-7{font-size:24px;}</style></defs><g id="Layer_2" data-name="Layer 2"><g id="Layer_1-2" data-name="Layer 1"><path class="cls-1" d="M403.74,237.63l-139,49.78a72.36,72.36,0,0,1-48.42.12L77,238.45a72.35,72.35,0,0,1-48.3-68l-.12-48.11A72.34,72.34,0,0,1,76.54,54l139-49.78A72.39,72.39,0,0,1,264,4.11L403.28,53.2a72.32,72.32,0,0,1,48.29,68l.12,48.11A72.33,72.33,0,0,1,403.74,237.63Z"/><path class="cls-2" d="M398.61,235.09,264,282.7a72.3,72.3,0,0,1-47.91.12L81.21,235.88a72.35,72.35,0,0,1-48.56-68.14L32.55,125A72.32,72.32,0,0,1,80.76,56.59L215.39,9a72.33,72.33,0,0,1,47.9-.12L398.16,55.8a72.32,72.32,0,0,1,48.55,68.13l.11,42.78A72.35,72.35,0,0,1,398.61,235.09Z"/><path class="cls-1" d="M396.55,232.63l-133,46.19a72.35,72.35,0,0,1-47.13.12L83.25,233.41a72.34,72.34,0,0,1-48.94-68.27l-.09-38.42a72.34,72.34,0,0,1,48.6-68.51L215.78,12a72.38,72.38,0,0,1,47.14-.12L396.11,57.43a72.34,72.34,0,0,1,48.94,68.27l.1,38.42A72.35,72.35,0,0,1,396.55,232.63Z"/><rect class="cls-3" y="100.47" width="475.2" height="86.4"/><rect class="cls-2" x="4.1" y="103.25" width="467" height="80.83"/><rect class="cls-4" x="6.77" y="105.75" width="461.67" height="75.83"/><text class="cls-5" transform="translate(8.13 167.39)">CALHOUN’S</text><text class="cls-6" transform="translate(118.43 227.84)">PLUMBING</text><text class="cls-7" transform="translate(94.27 90.33)">24 Hour Emergency Service</text><path class="cls-2" d="M247.83,40.79c7.43,10.77,1.65,19.57-12.92,19.65s-20.6-8.64-13.46-19.5l12.93-19.65Z"/></g></g></svg>